<svg id="visual" viewBox="0 0 900 600" width="900" height="600" xmlns="http://www.w3.org/2000/svg" xmlns:xlink="http://www.w3.org/1999/xlink" version="1.1"><rect x="0" y="0" width="900" height="600" fill="#001220"></rect><defs><linearGradient id="grad1_0" x1="33.3%" y1="0%" x2="100%" y2="100%"><stop offset="20%" stop-color="#001220" stop-opacity="1"></stop><stop offset="80%" stop-color="#001220" stop-opacity="1"></stop></linearGradient></defs><defs><linearGradient id="grad2_0" x1="0%" y1="0%" x2="66.7%" y2="100%"><stop offset="20%" stop-color="#001220" stop-opacity="1"></stop><stop offset="80%" stop-color="#001220" stop-opacity="1"></stop></linearGradient></defs><g transform="translate(900, 0)"><path d="M0 486.7C-70.2 486.9 -140.5 487 -186.3 449.7C-232.1 412.4 -253.5 337.6 -287.1 287.1C-320.7 236.6 -366.6 210.3 -401.9 166.5C-437.2 122.7 -462 61.3 -486.7 0L0 0Z" fill="#3498DB"></path></g><g transform="translate(0, 600)"><path d="M0 -486.7C53.6 -459.7 107.2 -432.7 171.8 -414.8C236.4 -396.9 312 -388.1 344.2 -344.2C376.3 -300.3 365 -221.3 381.6 -158C398.1 -94.8 442.4 -47.4 486.7 0L0 0Z" fill="#3498DB"></path></g></svg>