<svg xmlns="http://www.w3.org/2000/svg" viewBox="0 0 1440 320"><path fill="#0099ff" fill-opacity="1" d="M0,320L14.1,304C28.2,288,56,256,85,218.7C112.9,181,141,139,169,122.7C197.6,107,226,117,254,138.7C282.4,160,311,192,339,224C367.1,256,395,288,424,293.3C451.8,299,480,277,508,224C536.5,171,565,85,593,74.7C621.2,64,649,128,678,165.3C705.9,203,734,213,762,192C790.6,171,819,117,847,85.3C875.3,53,904,43,932,69.3C960,96,988,160,1016,160C1044.7,160,1073,96,1101,90.7C1129.4,85,1158,139,1186,138.7C1214.1,139,1242,85,1271,85.3C1298.8,85,1327,139,1355,138.7C1383.5,139,1412,85,1426,58.7L1440,32L1440,320L1425.9,320C1411.8,320,1384,320,1355,320C1327.1,320,1299,320,1271,320C1242.4,320,1214,320,1186,320C1157.6,320,1129,320,1101,320C1072.9,320,1045,320,1016,320C988.2,320,960,320,932,320C903.5,320,875,320,847,320C818.8,320,791,320,762,320C734.1,320,706,320,678,320C649.4,320,621,320,593,320C564.7,320,536,320,508,320C480,320,452,320,424,320C395.3,320,367,320,339,320C310.6,320,282,320,254,320C225.9,320,198,320,169,320C141.2,320,113,320,85,320C56.5,320,28,320,14,320L0,320Z"></path></svg>